<?xml version="1.0" encoding="UTF-8" standalone="no"?>
<!DOCTYPE svg PUBLIC "-//W3C//DTD SVG 1.1//EN"
 "http://www.w3.org/Graphics/SVG/1.1/DTD/svg11.dtd">
<!-- Generated by graphviz version 14.0.1 (20251006.0113)
 -->
<!-- Pages: 1 -->
<svg width="4800pt" height="1167pt"
 viewBox="0.00 0.00 4800.00 1167.00" xmlns="http://www.w3.org/2000/svg" xmlns:xlink="http://www.w3.org/1999/xlink">
<g id="graph0" class="graph" transform="scale(1.26783 1.26783) rotate(0) translate(4 916.4)">
<polygon fill="white" stroke="none" points="-4,4 -4,-916.4 3782.01,-916.4 3782.01,4 -4,4"/>
<g id="clust1" class="cluster">
<title>cluster_frontend</title>
<polygon fill="lightblue" stroke="lightblue" points="1845,-619.1 1845,-746 3031,-746 3031,-619.1 1845,-619.1"/>
<text xml:space="preserve" text-anchor="middle" x="2438" y="-728.7" font-family="Times,serif" font-size="14.00">Frontend Layer (Vercel)</text>
</g>
<g id="clust2" class="cluster">
<title>cluster_backend</title>
<polygon fill="lightgreen" stroke="lightgreen" points="744,-460.7 744,-587.6 1930,-587.6 1930,-460.7 744,-460.7"/>
<text xml:space="preserve" text-anchor="middle" x="1337" y="-570.3" font-family="Times,serif" font-size="14.00">Backend Layer (Render)</text>
</g>
<g id="clust3" class="cluster">
<title>cluster_ml</title>
<polygon fill="plum" stroke="plum" points="8,-8 8,-429.2 402,-429.2 402,-8 8,-8"/>
<text xml:space="preserve" text-anchor="middle" x="205" y="-411.9" font-family="Times,serif" font-size="14.00">ML Layer</text>
</g>
<g id="clust4" class="cluster">
<title>cluster_database</title>
<polygon fill="lightyellow" stroke="lightyellow" points="1938,-302.3 1938,-587.6 2530,-587.6 2530,-302.3 1938,-302.3"/>
<text xml:space="preserve" text-anchor="middle" x="2234" y="-570.3" font-family="Times,serif" font-size="14.00">Database Layer (Neon)</text>
</g>
<g id="clust5" class="cluster">
<title>cluster_data</title>
<polygon fill="lightcyan" stroke="lightcyan" points="332,-460.7 332,-904.4 726,-904.4 726,-460.7 332,-460.7"/>
<text xml:space="preserve" text-anchor="middle" x="529" y="-887.1" font-family="Times,serif" font-size="14.00">Data Sources</text>
</g>
<g id="clust6" class="cluster">
<title>cluster_infra</title>
<polygon fill="lightgray" stroke="lightgray" points="1740,-8 1740,-270.8 2332,-270.8 2332,-8 1740,-8"/>
<text xml:space="preserve" text-anchor="middle" x="2036" y="-253.5" font-family="Times,serif" font-size="14.00">Infrastructure</text>
</g>
<g id="clust7" class="cluster">
<title>cluster_apis</title>
<polygon fill="lightcoral" stroke="lightcoral" points="754,-302.3 754,-429.2 1544,-429.2 1544,-302.3 754,-302.3"/>
<text xml:space="preserve" text-anchor="middle" x="1149" y="-411.9" font-family="Times,serif" font-size="14.00">API Endpoints</text>
</g>
<g id="clust8" class="cluster">
<title>cluster_components</title>
<polygon fill="lightsteelblue" stroke="lightsteelblue" points="2538,-460.7 2538,-587.6 3724,-587.6 3724,-460.7 2538,-460.7"/>
<text xml:space="preserve" text-anchor="middle" x="3131" y="-570.3" font-family="Times,serif" font-size="14.00">Frontend Components</text>
</g>
<g id="clust9" class="cluster">
<title>cluster_legend</title>
<polygon fill="lightgray" stroke="lightgray" points="1918,-799.1 1918,-876.05 2540,-876.05 2540,-799.1 1918,-799.1"/>
<text xml:space="preserve" text-anchor="middle" x="2229" y="-864.45" font-family="Times,serif" font-size="8.00">Legend</text>
</g>
<!-- nextjs -->
<g id="node1" class="node">
<title>nextjs</title>
<polygon fill="#3b82f6" stroke="black" points="3023,-713.5 2843,-713.5 2843,-627.1 3023,-627.1 3023,-713.5"/>
<text xml:space="preserve" text-anchor="middle" x="2933" y="-673.15" font-family="Arial" font-size="12.00">Next.js 15.2.4</text>
<text xml:space="preserve" text-anchor="middle" x="2933" y="-658.9" font-family="Arial" font-size="12.00">React 19</text>
</g>
<!-- fastapi -->
<g id="node7" class="node">
<title>fastapi</title>
<polygon fill="#10b981" stroke="black" points="932,-555.1 752,-555.1 752,-468.7 932,-468.7 932,-555.1"/>
<text xml:space="preserve" text-anchor="middle" x="842" y="-514.75" font-family="Arial" font-size="12.00">FastAPI</text>
<text xml:space="preserve" text-anchor="middle" x="842" y="-500.5" font-family="Arial" font-size="12.00">Python Backend</text>
</g>
<!-- nextjs&#45;&gt;fastapi -->
<g id="edge1" class="edge">
<title>nextjs&#45;&gt;fastapi</title>
<path fill="none" stroke="blue" d="M2857,-626.69C2849.4,-623.68 2841.65,-621.06 2834,-619.1 2793.83,-608.83 2129.46,-596.4 2088,-595.6 2056.14,-594.99 971.18,-597.82 941,-587.6 924.61,-582.05 908.75,-572.61 894.7,-562.29"/>
<polygon fill="blue" stroke="blue" points="897.01,-559.64 886.95,-556.32 892.74,-565.19 897.01,-559.64"/>
<text xml:space="preserve" text-anchor="middle" x="2667.05" y="-598.65" font-family="Arial" font-size="11.00">API Calls</text>
</g>
<!-- vercel -->
<g id="node28" class="node">
<title>vercel</title>
<polygon fill="#6b7280" stroke="black" points="2324,-238.3 2144,-238.3 2144,-151.9 2324,-151.9 2324,-238.3"/>
<text xml:space="preserve" text-anchor="middle" x="2234" y="-197.95" font-family="Arial" font-size="12.00">Vercel</text>
<text xml:space="preserve" text-anchor="middle" x="2234" y="-183.7" font-family="Arial" font-size="12.00">Frontend Hosting</text>
</g>
<!-- nextjs&#45;&gt;vercel -->
<g id="edge29" class="edge">
<title>nextjs&#45;&gt;vercel</title>
<path fill="none" stroke="gray" d="M3023.5,-666.74C3222.04,-660.18 3681.9,-639.5 3728,-587.6 3765.45,-545.43 3764.24,-503.92 3728,-460.7 3548.65,-246.8 2642.25,-205.71 2335.58,-197.91"/>
<polygon fill="gray" stroke="gray" points="2336.08,-194.42 2326,-197.67 2335.91,-201.42 2336.08,-194.42"/>
<text xml:space="preserve" text-anchor="middle" x="3747.63" y="-440.25" font-family="Arial" font-size="11.00">Deployed on</text>
</g>
<!-- race_pred -->
<g id="node34" class="node">
<title>race_pred</title>
<polygon fill="#3b82f6" stroke="black" points="2726,-555.1 2546,-555.1 2546,-468.7 2726,-468.7 2726,-555.1"/>
<text xml:space="preserve" text-anchor="middle" x="2636" y="-514.75" font-family="Arial" font-size="12.00">Race Prediction</text>
<text xml:space="preserve" text-anchor="middle" x="2636" y="-500.5" font-family="Arial" font-size="12.00">Component</text>
</g>
<!-- nextjs&#45;&gt;race_pred -->
<g id="edge21" class="edge">
<title>nextjs&#45;&gt;race_pred</title>
<path fill="none" stroke="blue" d="M2851.36,-626.62C2845.53,-623.97 2839.71,-621.44 2834,-619.1 2791.27,-601.6 2776.01,-608.81 2735,-587.6 2721.3,-580.52 2707.52,-571.55 2694.77,-562.31"/>
<polygon fill="blue" stroke="blue" points="2697.02,-559.62 2686.91,-556.46 2692.84,-565.23 2697.02,-559.62"/>
<text xml:space="preserve" text-anchor="middle" x="2824.03" y="-598.65" font-family="Arial" font-size="11.00">Renders</text>
</g>
<!-- driver_perf -->
<g id="node35" class="node">
<title>driver_perf</title>
<polygon fill="#3b82f6" stroke="black" points="2924,-555.1 2744,-555.1 2744,-468.7 2924,-468.7 2924,-555.1"/>
<text xml:space="preserve" text-anchor="middle" x="2834" y="-514.75" font-family="Arial" font-size="12.00">Driver Performance</text>
<text xml:space="preserve" text-anchor="middle" x="2834" y="-500.5" font-family="Arial" font-size="12.00">Component</text>
</g>
<!-- nextjs&#45;&gt;driver_perf -->
<g id="edge22" class="edge">
<title>nextjs&#45;&gt;driver_perf</title>
<path fill="none" stroke="blue" d="M2906.21,-626.98C2894.15,-607.93 2879.8,-585.26 2867.08,-565.16"/>
<polygon fill="blue" stroke="blue" points="2870.1,-563.39 2861.79,-556.81 2864.18,-567.13 2870.1,-563.39"/>
<text xml:space="preserve" text-anchor="middle" x="2912.99" y="-598.65" font-family="Arial" font-size="11.00">Renders</text>
</g>
<!-- constructor_perf -->
<g id="node36" class="node">
<title>constructor_perf</title>
<polygon fill="#3b82f6" stroke="black" points="3122,-555.1 2942,-555.1 2942,-468.7 3122,-468.7 3122,-555.1"/>
<text xml:space="preserve" text-anchor="middle" x="3032" y="-514.75" font-family="Arial" font-size="12.00">Constructor Performance</text>
<text xml:space="preserve" text-anchor="middle" x="3032" y="-500.5" font-family="Arial" font-size="12.00">Component</text>
</g>
<!-- nextjs&#45;&gt;constructor_perf -->
<g id="edge23" class="edge">
<title>nextjs&#45;&gt;constructor_perf</title>
<path fill="none" stroke="blue" d="M2959.79,-626.98C2971.85,-607.93 2986.2,-585.26 2998.92,-565.16"/>
<polygon fill="blue" stroke="blue" points="3001.82,-567.13 3004.21,-556.81 2995.9,-563.39 3001.82,-567.13"/>
<text xml:space="preserve" text-anchor="middle" x="3000.16" y="-598.65" font-family="Arial" font-size="11.00">Renders</text>
</g>
<!-- era_analysis -->
<g id="node37" class="node">
<title>era_analysis</title>
<polygon fill="#3b82f6" stroke="black" points="3320,-555.1 3140,-555.1 3140,-468.7 3320,-468.7 3320,-555.1"/>
<text xml:space="preserve" text-anchor="middle" x="3230" y="-514.75" font-family="Arial" font-size="12.00">Era Analysis</text>
<text xml:space="preserve" text-anchor="middle" x="3230" y="-500.5" font-family="Arial" font-size="12.00">Component</text>
</g>
<!-- nextjs&#45;&gt;era_analysis -->
<g id="edge24" class="edge">
<title>nextjs&#45;&gt;era_analysis</title>
<path fill="none" stroke="blue" d="M3023.01,-637.77C3057.69,-624.19 3097.09,-606.96 3131,-587.6 3144.09,-580.12 3157.42,-571.15 3169.89,-562.06"/>
<polygon fill="blue" stroke="blue" points="3171.65,-565.11 3177.58,-556.34 3167.47,-559.5 3171.65,-565.11"/>
<text xml:space="preserve" text-anchor="middle" x="3136.42" y="-598.65" font-family="Arial" font-size="11.00">Renders</text>
</g>
<!-- personality -->
<g id="node38" class="node">
<title>personality</title>
<polygon fill="#3b82f6" stroke="black" points="3518,-555.1 3338,-555.1 3338,-468.7 3518,-468.7 3518,-555.1"/>
<text xml:space="preserve" text-anchor="middle" x="3428" y="-514.75" font-family="Arial" font-size="12.00">Driver Personality</text>
<text xml:space="preserve" text-anchor="middle" x="3428" y="-500.5" font-family="Arial" font-size="12.00">Component</text>
</g>
<!-- nextjs&#45;&gt;personality -->
<g id="edge25" class="edge">
<title>nextjs&#45;&gt;personality</title>
<path fill="none" stroke="blue" d="M3023.39,-662.09C3106.01,-652.88 3230.03,-632.38 3329,-587.6 3343.66,-580.96 3358.2,-571.84 3371.44,-562.23"/>
<polygon fill="blue" stroke="blue" points="3373.27,-565.24 3379.18,-556.44 3369.07,-559.64 3373.27,-565.24"/>
<text xml:space="preserve" text-anchor="middle" x="3329.67" y="-598.65" font-family="Arial" font-size="11.00">Renders</text>
</g>
<!-- trends -->
<g id="node39" class="node">
<title>trends</title>
<polygon fill="#3b82f6" stroke="black" points="3716,-555.1 3536,-555.1 3536,-468.7 3716,-468.7 3716,-555.1"/>
<text xml:space="preserve" text-anchor="middle" x="3626" y="-514.75" font-family="Arial" font-size="12.00">Winning Trends</text>
<text xml:space="preserve" text-anchor="middle" x="3626" y="-500.5" font-family="Arial" font-size="12.00">Component</text>
</g>
<!-- nextjs&#45;&gt;trends -->
<g id="edge26" class="edge">
<title>nextjs&#45;&gt;trends</title>
<path fill="none" stroke="blue" d="M3023.32,-662.48C3166.33,-650.76 3437.82,-624.42 3527,-587.6 3542.2,-581.32 3557.14,-572.14 3570.63,-562.35"/>
<polygon fill="blue" stroke="blue" points="3572.63,-565.23 3578.51,-556.41 3568.41,-559.64 3572.63,-565.23"/>
<text xml:space="preserve" text-anchor="middle" x="3521.88" y="-598.65" font-family="Arial" font-size="11.00">Renders</text>
</g>
<!-- tailwind -->
<g id="node2" class="node">
<title>tailwind</title>
<polygon fill="#3b82f6" stroke="black" points="2231,-713.5 2051,-713.5 2051,-627.1 2231,-627.1 2231,-713.5"/>
<text xml:space="preserve" text-anchor="middle" x="2141" y="-673.15" font-family="Arial" font-size="12.00">Tailwind CSS</text>
<text xml:space="preserve" text-anchor="middle" x="2141" y="-658.9" font-family="Arial" font-size="12.00">shadcn/ui</text>
</g>
<!-- zustand -->
<g id="node3" class="node">
<title>zustand</title>
<polygon fill="#3b82f6" stroke="black" points="2429,-713.5 2249,-713.5 2249,-627.1 2429,-627.1 2429,-713.5"/>
<text xml:space="preserve" text-anchor="middle" x="2339" y="-673.15" font-family="Arial" font-size="12.00">Zustand</text>
<text xml:space="preserve" text-anchor="middle" x="2339" y="-658.9" font-family="Arial" font-size="12.00">State Management</text>
</g>
<!-- react_query -->
<g id="node4" class="node">
<title>react_query</title>
<polygon fill="#3b82f6" stroke="black" points="2033,-713.5 1853,-713.5 1853,-627.1 2033,-627.1 2033,-713.5"/>
<text xml:space="preserve" text-anchor="middle" x="1943" y="-673.15" font-family="Arial" font-size="12.00">TanStack Query</text>
<text xml:space="preserve" text-anchor="middle" x="1943" y="-658.9" font-family="Arial" font-size="12.00">Data Fetching</text>
</g>
<!-- react_query&#45;&gt;fastapi -->
<g id="edge2" class="edge">
<title>react_query&#45;&gt;fastapi</title>
<path fill="none" stroke="blue" d="M1852.83,-668.35C1638.95,-665.06 1106.45,-650.61 941,-587.6 925.15,-581.57 909.69,-572.17 895.87,-562.06"/>
<polygon fill="blue" stroke="blue" points="898.32,-559.53 888.24,-556.26 894.08,-565.1 898.32,-559.53"/>
<text xml:space="preserve" text-anchor="middle" x="1035.37" y="-598.65" font-family="Arial" font-size="11.00">Data Fetching</text>
</g>
<!-- recharts -->
<g id="node5" class="node">
<title>recharts</title>
<polygon fill="#3b82f6" stroke="black" points="2825,-713.5 2645,-713.5 2645,-627.1 2825,-627.1 2825,-713.5"/>
<text xml:space="preserve" text-anchor="middle" x="2735" y="-673.15" font-family="Arial" font-size="12.00">Recharts</text>
<text xml:space="preserve" text-anchor="middle" x="2735" y="-658.9" font-family="Arial" font-size="12.00">Data Visualization</text>
</g>
<!-- vercel_cron -->
<g id="node6" class="node">
<title>vercel_cron</title>
<polygon fill="#6b7280" stroke="black" points="2627,-713.5 2447,-713.5 2447,-627.1 2627,-627.1 2627,-713.5"/>
<text xml:space="preserve" text-anchor="middle" x="2537" y="-673.15" font-family="Arial" font-size="12.00">Vercel Cron Jobs</text>
<text xml:space="preserve" text-anchor="middle" x="2537" y="-658.9" font-family="Arial" font-size="12.00">Automation</text>
</g>
<!-- vercel_cron&#45;&gt;fastapi -->
<g id="edge3" class="edge">
<title>vercel_cron&#45;&gt;fastapi</title>
<path fill="none" stroke="blue" d="M2461.02,-626.61C2453.41,-623.61 2445.66,-621.02 2438,-619.1 2397.65,-609 980.3,-601.22 941,-587.6 924.65,-581.93 908.8,-572.45 894.76,-562.12"/>
<polygon fill="blue" stroke="blue" points="897.06,-559.48 887,-556.16 892.8,-565.03 897.06,-559.48"/>
<text xml:space="preserve" text-anchor="middle" x="2035.58" y="-598.65" font-family="Arial" font-size="11.00">Automated Updates</text>
</g>
<!-- predictor -->
<g id="node16" class="node">
<title>predictor</title>
<polygon fill="#8b5cf6" stroke="black" points="394,-238.3 214,-238.3 214,-151.9 394,-151.9 394,-238.3"/>
<text xml:space="preserve" text-anchor="middle" x="304" y="-197.95" font-family="Arial" font-size="12.00">RankerPredictor</text>
<text xml:space="preserve" text-anchor="middle" x="304" y="-183.7" font-family="Arial" font-size="12.00">Service</text>
</g>
<!-- fastapi&#45;&gt;predictor -->
<g id="edge4" class="edge">
<title>fastapi&#45;&gt;predictor</title>
<path fill="none" stroke="green" d="M752.65,-468.28C745.08,-465.46 737.47,-462.88 730,-460.7 638.46,-433.95 589.34,-492.21 517.75,-429.2 473.77,-390.49 517.63,-348.81 482,-302.3 461.65,-275.74 432.6,-254.46 403.85,-238.13"/>
<polygon fill="green" stroke="green" points="405.9,-235.27 395.45,-233.51 402.53,-241.4 405.9,-235.27"/>
<text xml:space="preserve" text-anchor="middle" x="586.38" y="-349.8" font-family="Arial" font-size="11.00">API Call to model.pkl service</text>
</g>
<!-- postgres -->
<g id="node18" class="node">
<title>postgres</title>
<polygon fill="#f59e0b" stroke="black" points="2126,-396.7 1946,-396.7 1946,-310.3 2126,-310.3 2126,-396.7"/>
<text xml:space="preserve" text-anchor="middle" x="2036" y="-356.35" font-family="Arial" font-size="12.00">PostgreSQL</text>
<text xml:space="preserve" text-anchor="middle" x="2036" y="-342.1" font-family="Arial" font-size="12.00">Serverless</text>
</g>
<!-- fastapi&#45;&gt;postgres -->
<g id="edge7" class="edge">
<title>fastapi&#45;&gt;postgres</title>
<path fill="none" stroke="orange" d="M918.31,-468.3C925.82,-465.3 933.45,-462.69 941,-460.7 988.11,-448.3 1111.45,-454.78 1160,-450.7 1209.08,-446.57 1220.88,-440.91 1270,-437.2 1393.26,-427.88 1424.9,-440.35 1548,-429.2 1682.38,-417.03 1836.04,-391.58 1934.44,-373.78"/>
<polygon fill="orange" stroke="orange" points="1934.87,-377.26 1944.08,-372.03 1933.61,-370.37 1934.87,-377.26"/>
<text xml:space="preserve" text-anchor="middle" x="1321" y="-440.25" font-family="Arial" font-size="11.00">Database Operations</text>
</g>
<!-- docker -->
<g id="node26" class="node">
<title>docker</title>
<polygon fill="#6b7280" stroke="black" points="1928,-238.3 1748,-238.3 1748,-151.9 1928,-151.9 1928,-238.3"/>
<text xml:space="preserve" text-anchor="middle" x="1838" y="-197.95" font-family="Arial" font-size="12.00">Docker</text>
<text xml:space="preserve" text-anchor="middle" x="1838" y="-183.7" font-family="Arial" font-size="12.00">Containerization</text>
</g>
<!-- fastapi&#45;&gt;docker -->
<g id="edge28" class="edge">
<title>fastapi&#45;&gt;docker</title>
<path fill="none" stroke="gray" d="M751.66,-469.25C718.44,-453.03 687.75,-436.58 683.25,-429.2 653.88,-381.05 645.24,-343.97 683.25,-302.3 753.6,-225.18 1467.86,-203.32 1736.54,-197.79"/>
<polygon fill="gray" stroke="gray" points="1736.4,-201.3 1746.32,-197.59 1736.26,-194.3 1736.4,-201.3"/>
<text xml:space="preserve" text-anchor="middle" x="716.62" y="-349.8" font-family="Arial" font-size="11.00">Containerized</text>
</g>
<!-- predict_api -->
<g id="node30" class="node">
<title>predict_api</title>
<polygon fill="#10b981" stroke="black" points="1536,-396.7 1356,-396.7 1356,-310.3 1536,-310.3 1536,-396.7"/>
<text xml:space="preserve" text-anchor="middle" x="1446" y="-356.35" font-family="Arial" font-size="12.00">/predict</text>
<text xml:space="preserve" text-anchor="middle" x="1446" y="-342.1" font-family="Arial" font-size="12.00">Race Predictions</text>
</g>
<!-- fastapi&#45;&gt;predict_api -->
<g id="edge17" class="edge">
<title>fastapi&#45;&gt;predict_api</title>
<path fill="none" stroke="green" d="M918.9,-468.22C926.22,-465.29 933.66,-462.7 941,-460.7 1008.45,-442.29 1030.34,-468.32 1098,-450.7 1111.47,-447.19 1112.74,-440.52 1126.25,-437.2 1173.92,-425.48 1300.74,-445.63 1347,-429.2 1363.14,-423.47 1378.82,-414.08 1392.75,-403.86"/>
<polygon fill="green" stroke="green" points="1394.63,-406.84 1400.44,-397.98 1390.37,-401.28 1394.63,-406.84"/>
<text xml:space="preserve" text-anchor="middle" x="1143.12" y="-440.25" font-family="Arial" font-size="11.00">Serves</text>
</g>
<!-- results_api -->
<g id="node31" class="node">
<title>results_api</title>
<polygon fill="#10b981" stroke="black" points="942,-396.7 762,-396.7 762,-310.3 942,-310.3 942,-396.7"/>
<text xml:space="preserve" text-anchor="middle" x="852" y="-356.35" font-family="Arial" font-size="12.00">/update_results</text>
<text xml:space="preserve" text-anchor="middle" x="852" y="-342.1" font-family="Arial" font-size="12.00">Result Updates</text>
</g>
<!-- fastapi&#45;&gt;results_api -->
<g id="edge18" class="edge">
<title>fastapi&#45;&gt;results_api</title>
<path fill="none" stroke="green" d="M844.71,-468.58C845.89,-450.05 847.29,-428.09 848.55,-408.41"/>
<polygon fill="green" stroke="green" points="852.03,-408.84 849.18,-398.64 845.05,-408.4 852.03,-408.84"/>
<text xml:space="preserve" text-anchor="middle" x="863.58" y="-440.25" font-family="Arial" font-size="11.00">Serves</text>
</g>
<!-- health_api -->
<g id="node32" class="node">
<title>health_api</title>
<polygon fill="#10b981" stroke="black" points="1140,-396.7 960,-396.7 960,-310.3 1140,-310.3 1140,-396.7"/>
<text xml:space="preserve" text-anchor="middle" x="1050" y="-356.35" font-family="Arial" font-size="12.00">/healthz</text>
<text xml:space="preserve" text-anchor="middle" x="1050" y="-342.1" font-family="Arial" font-size="12.00">Health Check</text>
</g>
<!-- fastapi&#45;&gt;health_api -->
<g id="edge19" class="edge">
<title>fastapi&#45;&gt;health_api</title>
<path fill="none" stroke="green" d="M898.88,-468.32C915.67,-455.73 934.08,-441.92 951,-429.2 961.86,-421.03 973.39,-412.35 984.59,-403.9"/>
<polygon fill="green" stroke="green" points="986.4,-406.92 992.27,-398.11 982.18,-401.33 986.4,-406.92"/>
<text xml:space="preserve" text-anchor="middle" x="956.06" y="-440.25" font-family="Arial" font-size="11.00">Serves</text>
</g>
<!-- predictions_api -->
<g id="node33" class="node">
<title>predictions_api</title>
<polygon fill="#10b981" stroke="black" points="1338,-396.7 1158,-396.7 1158,-310.3 1338,-310.3 1338,-396.7"/>
<text xml:space="preserve" text-anchor="middle" x="1248" y="-356.35" font-family="Arial" font-size="12.00">/predictions</text>
<text xml:space="preserve" text-anchor="middle" x="1248" y="-342.1" font-family="Arial" font-size="12.00">Get Predictions</text>
</g>
<!-- fastapi&#45;&gt;predictions_api -->
<g id="edge20" class="edge">
<title>fastapi&#45;&gt;predictions_api</title>
<path fill="none" stroke="green" d="M921.41,-468.25C927.94,-465.47 934.53,-462.91 941,-460.7 967.39,-451.7 1036.65,-441.13 1064.25,-437.2 1101.71,-431.87 1113.73,-442.89 1149,-429.2 1164.49,-423.19 1179.64,-414.01 1193.25,-404.12"/>
<polygon fill="green" stroke="green" points="1195.34,-406.93 1201.2,-398.1 1191.11,-401.35 1195.34,-406.93"/>
<text xml:space="preserve" text-anchor="middle" x="1081.12" y="-440.25" font-family="Arial" font-size="11.00">Serves</text>
</g>
<!-- uvicorn -->
<g id="node8" class="node">
<title>uvicorn</title>
<polygon fill="#10b981" stroke="black" points="1130,-555.1 950,-555.1 950,-468.7 1130,-468.7 1130,-555.1"/>
<text xml:space="preserve" text-anchor="middle" x="1040" y="-514.75" font-family="Arial" font-size="12.00">Uvicorn</text>
<text xml:space="preserve" text-anchor="middle" x="1040" y="-500.5" font-family="Arial" font-size="12.00">ASGI Server</text>
</g>
<!-- sqlalchemy -->
<g id="node9" class="node">
<title>sqlalchemy</title>
<polygon fill="#10b981" stroke="black" points="1328,-555.1 1148,-555.1 1148,-468.7 1328,-468.7 1328,-555.1"/>
<text xml:space="preserve" text-anchor="middle" x="1238" y="-514.75" font-family="Arial" font-size="12.00">SQLAlchemy</text>
<text xml:space="preserve" text-anchor="middle" x="1238" y="-500.5" font-family="Arial" font-size="12.00">ORM</text>
</g>
<!-- sqlalchemy&#45;&gt;postgres -->
<g id="edge8" class="edge">
<title>sqlalchemy&#45;&gt;postgres</title>
<path fill="none" stroke="orange" d="M1316.48,-468.3C1323.31,-465.46 1330.21,-462.87 1337,-460.7 1427.33,-431.89 1454.25,-443.37 1548,-429.2 1681.62,-409 1835.77,-385.34 1934.46,-370.15"/>
<polygon fill="orange" stroke="orange" points="1934.78,-373.65 1944.13,-368.67 1933.71,-366.73 1934.78,-373.65"/>
<text xml:space="preserve" text-anchor="middle" x="1503.43" y="-440.25" font-family="Arial" font-size="11.00">ORM Queries</text>
</g>
<!-- pydantic -->
<g id="node10" class="node">
<title>pydantic</title>
<polygon fill="#10b981" stroke="black" points="1526,-555.1 1346,-555.1 1346,-468.7 1526,-468.7 1526,-555.1"/>
<text xml:space="preserve" text-anchor="middle" x="1436" y="-514.75" font-family="Arial" font-size="12.00">Pydantic</text>
<text xml:space="preserve" text-anchor="middle" x="1436" y="-500.5" font-family="Arial" font-size="12.00">Data Validation</text>
</g>
<!-- cors -->
<g id="node11" class="node">
<title>cors</title>
<polygon fill="#10b981" stroke="black" points="1724,-555.1 1544,-555.1 1544,-468.7 1724,-468.7 1724,-555.1"/>
<text xml:space="preserve" text-anchor="middle" x="1634" y="-514.75" font-family="Arial" font-size="12.00">CORS</text>
<text xml:space="preserve" text-anchor="middle" x="1634" y="-500.5" font-family="Arial" font-size="12.00">Middleware</text>
</g>
<!-- auth -->
<g id="node12" class="node">
<title>auth</title>
<polygon fill="#10b981" stroke="black" points="1922,-555.1 1742,-555.1 1742,-468.7 1922,-468.7 1922,-555.1"/>
<text xml:space="preserve" text-anchor="middle" x="1832" y="-514.75" font-family="Arial" font-size="12.00">API Key</text>
<text xml:space="preserve" text-anchor="middle" x="1832" y="-500.5" font-family="Arial" font-size="12.00">Authentication</text>
</g>
<!-- xgboost -->
<g id="node13" class="node">
<title>xgboost</title>
<polygon fill="#8b5cf6" stroke="black" points="196,-238.3 16,-238.3 16,-151.9 196,-151.9 196,-238.3"/>
<text xml:space="preserve" text-anchor="middle" x="106" y="-197.95" font-family="Arial" font-size="12.00">XGBoost</text>
<text xml:space="preserve" text-anchor="middle" x="106" y="-183.7" font-family="Arial" font-size="12.00">Ranker Model</text>
</g>
<!-- model_pkl -->
<g id="node15" class="node">
<title>model_pkl</title>
<polygon fill="#8b5cf6" stroke="black" points="276,-102.4 96,-102.4 96,-16 276,-16 276,-102.4"/>
<text xml:space="preserve" text-anchor="middle" x="186" y="-62.05" font-family="Arial" font-size="12.00">Persisted Model</text>
<text xml:space="preserve" text-anchor="middle" x="186" y="-47.8" font-family="Arial" font-size="12.00">(.pkl file)</text>
</g>
<!-- xgboost&#45;&gt;model_pkl -->
<g id="edge15" class="edge">
<title>xgboost&#45;&gt;model_pkl</title>
<path fill="none" stroke="purple" stroke-dasharray="5,2" d="M97.13,-151.59C96.79,-140.94 98.17,-129.87 103,-120.4 104.61,-117.25 106.46,-114.23 108.52,-111.33"/>
<polygon fill="purple" stroke="purple" points="111.16,-113.64 114.76,-103.68 105.73,-109.21 111.16,-113.64"/>
<text xml:space="preserve" text-anchor="middle" x="131.5" y="-123.45" font-family="Arial" font-size="11.00">Save Model</text>
</g>
<!-- feature_eng -->
<g id="node14" class="node">
<title>feature_eng</title>
<polygon fill="#8b5cf6" stroke="black" points="196,-396.7 16,-396.7 16,-310.3 196,-310.3 196,-396.7"/>
<text xml:space="preserve" text-anchor="middle" x="106" y="-356.35" font-family="Arial" font-size="12.00">Feature Engineering</text>
<text xml:space="preserve" text-anchor="middle" x="106" y="-342.1" font-family="Arial" font-size="12.00">110+ Features</text>
</g>
<!-- feature_eng&#45;&gt;xgboost -->
<g id="edge14" class="edge">
<title>feature_eng&#45;&gt;xgboost</title>
<path fill="none" stroke="purple" stroke-dasharray="5,2" d="M106,-310.18C106,-291.65 106,-269.69 106,-250.01"/>
<polygon fill="purple" stroke="purple" points="109.5,-250.24 106,-240.24 102.5,-250.24 109.5,-250.24"/>
<text xml:space="preserve" text-anchor="middle" x="141.25" y="-281.85" font-family="Arial" font-size="11.00">Model Training</text>
</g>
<!-- model_pkl&#45;&gt;xgboost -->
<g id="edge6" class="edge">
<title>model_pkl&#45;&gt;xgboost</title>
<path fill="none" stroke="purple" d="M177.09,-102.57C173.86,-113.22 169.59,-124.33 164,-133.9 162.26,-136.87 160.35,-139.82 158.31,-142.7"/>
<polygon fill="purple" stroke="purple" points="155.63,-140.45 152.33,-150.52 161.18,-144.7 155.63,-140.45"/>
<text xml:space="preserve" text-anchor="middle" x="209.15" y="-123.45" font-family="Arial" font-size="11.00">Model Inference</text>
</g>
<!-- predictor&#45;&gt;model_pkl -->
<g id="edge5" class="edge">
<title>predictor&#45;&gt;model_pkl</title>
<path fill="none" stroke="purple" d="M276.36,-151.59C268.88,-141.05 260.49,-130.03 252,-120.4 249.14,-117.16 246.12,-113.9 243,-110.69"/>
<polygon fill="purple" stroke="purple" points="245.73,-108.46 236.19,-103.85 240.77,-113.4 245.73,-108.46"/>
<text xml:space="preserve" text-anchor="middle" x="291.14" y="-123.45" font-family="Arial" font-size="11.00">Load Model</text>
</g>
<!-- label_enc -->
<g id="node17" class="node">
<title>label_enc</title>
<polygon fill="#8b5cf6" stroke="black" points="394,-396.7 214,-396.7 214,-310.3 394,-310.3 394,-396.7"/>
<text xml:space="preserve" text-anchor="middle" x="304" y="-356.35" font-family="Arial" font-size="12.00">Label Encoders</text>
<text xml:space="preserve" text-anchor="middle" x="304" y="-342.1" font-family="Arial" font-size="12.00">Categorical Data</text>
</g>
<!-- neon -->
<g id="node29" class="node">
<title>neon</title>
<polygon fill="#6b7280" stroke="black" points="2126,-238.3 1946,-238.3 1946,-151.9 2126,-151.9 2126,-238.3"/>
<text xml:space="preserve" text-anchor="middle" x="2036" y="-197.95" font-family="Arial" font-size="12.00">Neon</text>
<text xml:space="preserve" text-anchor="middle" x="2036" y="-183.7" font-family="Arial" font-size="12.00">Database Hosting</text>
</g>
<!-- postgres&#45;&gt;neon -->
<g id="edge30" class="edge">
<title>postgres&#45;&gt;neon</title>
<path fill="none" stroke="gray" d="M2036,-310.18C2036,-291.65 2036,-269.69 2036,-250.01"/>
<polygon fill="gray" stroke="gray" points="2039.5,-250.24 2036,-240.24 2032.5,-250.24 2039.5,-250.24"/>
<text xml:space="preserve" text-anchor="middle" x="2060.75" y="-281.85" font-family="Arial" font-size="11.00">Hosted on</text>
</g>
<!-- predictions -->
<g id="node19" class="node">
<title>predictions</title>
<polygon fill="#f59e0b" stroke="black" points="2126,-555.1 1946,-555.1 1946,-468.7 2126,-468.7 2126,-555.1"/>
<text xml:space="preserve" text-anchor="middle" x="2036" y="-514.75" font-family="Arial" font-size="12.00">Predictions Table</text>
<text xml:space="preserve" text-anchor="middle" x="2036" y="-500.5" font-family="Arial" font-size="12.00">Race Results</text>
</g>
<!-- predictions&#45;&gt;postgres -->
<g id="edge9" class="edge">
<title>predictions&#45;&gt;postgres</title>
<path fill="none" stroke="orange" d="M2036,-468.58C2036,-450.05 2036,-428.09 2036,-408.41"/>
<polygon fill="orange" stroke="orange" points="2039.5,-408.64 2036,-398.64 2032.5,-408.64 2039.5,-408.64"/>
<text xml:space="preserve" text-anchor="middle" x="2077.25" y="-440.25" font-family="Arial" font-size="11.00">Store Predictions</text>
</g>
<!-- results -->
<g id="node20" class="node">
<title>results</title>
<polygon fill="#f59e0b" stroke="black" points="2324,-555.1 2144,-555.1 2144,-468.7 2324,-468.7 2324,-555.1"/>
<text xml:space="preserve" text-anchor="middle" x="2234" y="-514.75" font-family="Arial" font-size="12.00">Results Table</text>
<text xml:space="preserve" text-anchor="middle" x="2234" y="-500.5" font-family="Arial" font-size="12.00">Actual Results</text>
</g>
<!-- results&#45;&gt;postgres -->
<g id="edge10" class="edge">
<title>results&#45;&gt;postgres</title>
<path fill="none" stroke="orange" d="M2180.16,-468.37C2154.95,-448.46 2124.77,-424.62 2098.56,-403.91"/>
<polygon fill="orange" stroke="orange" points="2101.04,-401.41 2091.02,-397.96 2096.7,-406.91 2101.04,-401.41"/>
<text xml:space="preserve" text-anchor="middle" x="2185.36" y="-440.25" font-family="Arial" font-size="11.00">Store Results</text>
</g>
<!-- races -->
<g id="node21" class="node">
<title>races</title>
<polygon fill="#f59e0b" stroke="black" points="2522,-555.1 2342,-555.1 2342,-468.7 2522,-468.7 2522,-555.1"/>
<text xml:space="preserve" text-anchor="middle" x="2432" y="-514.75" font-family="Arial" font-size="12.00">Races Table</text>
<text xml:space="preserve" text-anchor="middle" x="2432" y="-500.5" font-family="Arial" font-size="12.00">Race Information</text>
</g>
<!-- ergast -->
<g id="node22" class="node">
<title>ergast</title>
<polygon fill="#ef4444" stroke="black" points="718,-713.5 538,-713.5 538,-627.1 718,-627.1 718,-713.5"/>
<text xml:space="preserve" text-anchor="middle" x="628" y="-673.15" font-family="Arial" font-size="12.00">Ergast F1 API</text>
<text xml:space="preserve" text-anchor="middle" x="628" y="-658.9" font-family="Arial" font-size="12.00">Historical Data</text>
</g>
<!-- ergast&#45;&gt;fastapi -->
<g id="edge32" class="edge">
<title>ergast&#45;&gt;fastapi</title>
<path fill="none" stroke="red" stroke-dasharray="5,2" d="M686.19,-626.77C713.56,-606.77 746.34,-582.81 774.76,-562.04"/>
<polygon fill="red" stroke="red" points="776.59,-565.04 782.6,-556.32 772.46,-559.39 776.59,-565.04"/>
<text xml:space="preserve" text-anchor="middle" x="751.46" y="-598.65" font-family="Arial" font-size="11.00">Live Data</text>
</g>
<!-- enhanced_dataset -->
<g id="node24" class="node">
<title>enhanced_dataset</title>
<polygon fill="#06b6d4" stroke="black" points="520,-555.1 340,-555.1 340,-468.7 520,-468.7 520,-555.1"/>
<text xml:space="preserve" text-anchor="middle" x="430" y="-514.75" font-family="Arial" font-size="12.00">Enhanced Dataset</text>
<text xml:space="preserve" text-anchor="middle" x="430" y="-500.5" font-family="Arial" font-size="12.00">3,318 Records</text>
</g>
<!-- ergast&#45;&gt;enhanced_dataset -->
<g id="edge11" class="edge">
<title>ergast&#45;&gt;enhanced_dataset</title>
<path fill="none" stroke="red" stroke-dasharray="5,2" d="M574.16,-626.77C548.95,-606.86 518.77,-583.02 492.56,-562.31"/>
<polygon fill="red" stroke="red" points="495.04,-559.81 485.02,-556.36 490.7,-565.31 495.04,-559.81"/>
<text xml:space="preserve" text-anchor="middle" x="581.98" y="-598.65" font-family="Arial" font-size="11.00">Historical Data</text>
</g>
<!-- fastf1 -->
<g id="node23" class="node">
<title>fastf1</title>
<polygon fill="#ef4444" stroke="black" points="520,-713.5 340,-713.5 340,-627.1 520,-627.1 520,-713.5"/>
<text xml:space="preserve" text-anchor="middle" x="430" y="-673.15" font-family="Arial" font-size="12.00">FastF1</text>
<text xml:space="preserve" text-anchor="middle" x="430" y="-658.9" font-family="Arial" font-size="12.00">Telemetry Data</text>
</g>
<!-- fastf1&#45;&gt;enhanced_dataset -->
<g id="edge12" class="edge">
<title>fastf1&#45;&gt;enhanced_dataset</title>
<path fill="none" stroke="red" stroke-dasharray="5,2" d="M430,-626.98C430,-608.45 430,-586.49 430,-566.81"/>
<polygon fill="red" stroke="red" points="433.5,-567.04 430,-557.04 426.5,-567.04 433.5,-567.04"/>
<text xml:space="preserve" text-anchor="middle" x="466.38" y="-598.65" font-family="Arial" font-size="11.00">Telemetry Data</text>
</g>
<!-- enhanced_dataset&#45;&gt;xgboost -->
<g id="edge31" class="edge">
<title>enhanced_dataset&#45;&gt;xgboost</title>
<path fill="none" stroke="purple" stroke-dasharray="5,2" d="M437.94,-468.23C444.04,-421.03 445.36,-345.91 403,-302.3 340.91,-238.38 287,-305.67 205,-270.8 189.95,-264.4 175.11,-255.22 161.69,-245.47"/>
<polygon fill="purple" stroke="purple" points="163.94,-242.79 153.84,-239.57 159.73,-248.38 163.94,-242.79"/>
<text xml:space="preserve" text-anchor="middle" x="460.22" y="-349.8" font-family="Arial" font-size="11.00">Training</text>
</g>
<!-- enhanced_dataset&#45;&gt;feature_eng -->
<g id="edge13" class="edge">
<title>enhanced_dataset&#45;&gt;feature_eng</title>
<path fill="none" stroke="cyan" stroke-dasharray="5,2" d="M339.74,-484.96C297.54,-471.13 247.37,-452.2 205,-429.2 191.6,-421.93 178.04,-412.96 165.43,-403.8"/>
<polygon fill="cyan" stroke="cyan" points="167.76,-401.17 157.65,-398.01 163.59,-406.79 167.76,-401.17"/>
<text xml:space="preserve" text-anchor="middle" x="278.29" y="-440.25" font-family="Arial" font-size="11.00">Training Data</text>
</g>
<!-- cache -->
<g id="node25" class="node">
<title>cache</title>
<polygon fill="#06b6d4" stroke="black" points="520,-871.9 340,-871.9 340,-785.5 520,-785.5 520,-871.9"/>
<text xml:space="preserve" text-anchor="middle" x="430" y="-831.55" font-family="Arial" font-size="12.00">FastF1 Cache</text>
<text xml:space="preserve" text-anchor="middle" x="430" y="-817.3" font-family="Arial" font-size="12.00">Local Storage</text>
</g>
<!-- cache&#45;&gt;fastf1 -->
<g id="edge16" class="edge">
<title>cache&#45;&gt;fastf1</title>
<path fill="none" stroke="cyan" d="M430,-785.38C430,-766.85 430,-744.89 430,-725.21"/>
<polygon fill="cyan" stroke="cyan" points="433.5,-725.44 430,-715.44 426.5,-725.44 433.5,-725.44"/>
<text xml:space="preserve" text-anchor="middle" x="461.88" y="-757.05" font-family="Arial" font-size="11.00">Cached Data</text>
</g>
<!-- render -->
<g id="node27" class="node">
<title>render</title>
<polygon fill="#6b7280" stroke="black" points="1928,-102.4 1748,-102.4 1748,-16 1928,-16 1928,-102.4"/>
<text xml:space="preserve" text-anchor="middle" x="1838" y="-62.05" font-family="Arial" font-size="12.00">Render</text>
<text xml:space="preserve" text-anchor="middle" x="1838" y="-47.8" font-family="Arial" font-size="12.00">Backend Hosting</text>
</g>
<!-- docker&#45;&gt;render -->
<g id="edge27" class="edge">
<title>docker&#45;&gt;render</title>
<path fill="none" stroke="gray" d="M1838,-151.73C1838,-139.77 1838,-126.58 1838,-114.04"/>
<polygon fill="gray" stroke="gray" points="1841.5,-114.26 1838,-104.26 1834.5,-114.26 1841.5,-114.26"/>
<text xml:space="preserve" text-anchor="middle" x="1868.38" y="-123.45" font-family="Arial" font-size="11.00">Deployed on</text>
</g>
<!-- legend_frontend -->
<g id="node40" class="node">
<title>legend_frontend</title>
<polygon fill="#3b82f6" stroke="black" points="2012.2,-850.3 1925.8,-850.3 1925.8,-807.1 2012.2,-807.1 2012.2,-850.3"/>
<text xml:space="preserve" text-anchor="middle" x="1969" y="-826.18" font-family="Arial" font-size="7.00">Frontend</text>
</g>
<!-- legend_backend -->
<g id="node41" class="node">
<title>legend_backend</title>
<polygon fill="#10b981" stroke="black" points="2116.2,-850.3 2029.8,-850.3 2029.8,-807.1 2116.2,-807.1 2116.2,-850.3"/>
<text xml:space="preserve" text-anchor="middle" x="2073" y="-826.18" font-family="Arial" font-size="7.00">Backend</text>
</g>
<!-- legend_ml -->
<g id="node42" class="node">
<title>legend_ml</title>
<polygon fill="#8b5cf6" stroke="black" points="2220.2,-850.3 2133.8,-850.3 2133.8,-807.1 2220.2,-807.1 2220.2,-850.3"/>
<text xml:space="preserve" text-anchor="middle" x="2177" y="-826.18" font-family="Arial" font-size="7.00">ML</text>
</g>
<!-- legend_database -->
<g id="node43" class="node">
<title>legend_database</title>
<polygon fill="#f59e0b" stroke="black" points="2324.2,-850.3 2237.8,-850.3 2237.8,-807.1 2324.2,-807.1 2324.2,-850.3"/>
<text xml:space="preserve" text-anchor="middle" x="2281" y="-826.18" font-family="Arial" font-size="7.00">Database</text>
</g>
<!-- legend_external -->
<g id="node44" class="node">
<title>legend_external</title>
<polygon fill="#ef4444" stroke="black" points="2428.2,-850.3 2341.8,-850.3 2341.8,-807.1 2428.2,-807.1 2428.2,-850.3"/>
<text xml:space="preserve" text-anchor="middle" x="2385" y="-826.18" font-family="Arial" font-size="7.00">External</text>
</g>
<!-- legend_infrastructure -->
<g id="node45" class="node">
<title>legend_infrastructure</title>
<polygon fill="#6b7280" stroke="black" points="2532.2,-850.3 2445.8,-850.3 2445.8,-807.1 2532.2,-807.1 2532.2,-850.3"/>
<text xml:space="preserve" text-anchor="middle" x="2489" y="-826.18" font-family="Arial" font-size="7.00">Infra</text>
</g>
</g>
</svg>
