<?xml version="1.0" encoding="UTF-8" standalone="no"?>
<!DOCTYPE svg PUBLIC "-//W3C//DTD SVG 1.1//EN"
 "http://www.w3.org/Graphics/SVG/1.1/DTD/svg11.dtd">
<!-- Generated by graphviz version 14.0.1 (20251006.0113)
 -->
<!-- Pages: 1 -->
<svg width="6000pt" height="1519pt"
 viewBox="0.00 0.00 6000.00 1519.00" xmlns="http://www.w3.org/2000/svg" xmlns:xlink="http://www.w3.org/1999/xlink">
<g id="graph0" class="graph" transform="scale(2.31437 2.31437) rotate(0) translate(4 652.2)">
<polygon fill="white" stroke="none" points="-4,4 -4,-652.2 2588.5,-652.2 2588.5,4 -4,4"/>
<g id="clust1" class="cluster">
<title>cluster_legend</title>
<polygon fill="lightgray" stroke="lightgray" points="38.8,-136.2 38.8,-640.2 141.2,-640.2 141.2,-136.2 38.8,-136.2"/>
<text xml:space="preserve" text-anchor="middle" x="90" y="-628.6" font-family="Times,serif" font-size="8.00">Legend</text>
</g>
<!-- ergast_api -->
<g id="node1" class="node">
<title>ergast_api</title>
<polygon fill="#ef4444" stroke="black" points="459,-243.4 279,-243.4 279,-157 459,-157 459,-243.4"/>
<text xml:space="preserve" text-anchor="middle" x="369" y="-203.05" font-family="Arial" font-size="12.00">Ergast F1 API</text>
<text xml:space="preserve" text-anchor="middle" x="369" y="-188.8" font-family="Arial" font-size="12.00">Historical Data</text>
</g>
<!-- data_collector -->
<g id="node3" class="node">
<title>data_collector</title>
<polygon fill="#06b6d4" stroke="black" points="757.5,-165.4 577.5,-165.4 577.5,-79 757.5,-79 757.5,-165.4"/>
<text xml:space="preserve" text-anchor="middle" x="667.5" y="-132.17" font-family="Arial" font-size="12.00">Data Collectors</text>
<text xml:space="preserve" text-anchor="middle" x="667.5" y="-117.92" font-family="Arial" font-size="12.00">ErgastCollector</text>
<text xml:space="preserve" text-anchor="middle" x="667.5" y="-103.67" font-family="Arial" font-size="12.00">FastF1Collector</text>
</g>
<!-- ergast_api&#45;&gt;data_collector -->
<g id="edge1" class="edge">
<title>ergast_api&#45;&gt;data_collector</title>
<path fill="none" stroke="black" stroke-dasharray="5,2" d="M459.36,-176.69C492.98,-167.85 531.42,-157.73 565.99,-148.64"/>
<polygon fill="black" stroke="black" points="566.82,-152.04 575.6,-146.11 565.04,-145.27 566.82,-152.04"/>
<text xml:space="preserve" text-anchor="middle" x="518.25" y="-173.68" font-family="Times,serif" font-size="14.00">Historical Data</text>
</g>
<!-- fastf1_api -->
<g id="node2" class="node">
<title>fastf1_api</title>
<polygon fill="#ef4444" stroke="black" points="180,-126.4 0,-126.4 0,-40 180,-40 180,-126.4"/>
<text xml:space="preserve" text-anchor="middle" x="90" y="-86.05" font-family="Arial" font-size="12.00">FastF1</text>
<text xml:space="preserve" text-anchor="middle" x="90" y="-71.8" font-family="Arial" font-size="12.00">Telemetry Data</text>
</g>
<!-- fastf1_api&#45;&gt;data_collector -->
<g id="edge2" class="edge">
<title>fastf1_api&#45;&gt;data_collector</title>
<path fill="none" stroke="black" stroke-dasharray="5,2" d="M180.29,-89.25C284.58,-96.32 456.67,-107.98 565.67,-115.37"/>
<polygon fill="black" stroke="black" points="565.28,-118.85 575.49,-116.03 565.75,-111.86 565.28,-118.85"/>
<text xml:space="preserve" text-anchor="middle" x="369" y="-111.05" font-family="Times,serif" font-size="14.00">Telemetry Data</text>
</g>
<!-- cache -->
<g id="node10" class="node">
<title>cache</title>
<polygon fill="#6b7280" stroke="black" points="459,-86.4 279,-86.4 279,0 459,0 459,-86.4"/>
<text xml:space="preserve" text-anchor="middle" x="369" y="-46.05" font-family="Arial" font-size="12.00">FastF1 Cache</text>
<text xml:space="preserve" text-anchor="middle" x="369" y="-31.8" font-family="Arial" font-size="12.00">Local Storage</text>
</g>
<!-- fastf1_api&#45;&gt;cache -->
<g id="edge10" class="edge">
<title>fastf1_api&#45;&gt;cache</title>
<path fill="none" stroke="black" d="M180.17,-70.32C207.95,-66.31 238.79,-61.86 267.3,-57.74"/>
<polygon fill="black" stroke="black" points="267.63,-61.23 277.03,-56.34 266.63,-54.3 267.63,-61.23"/>
<text xml:space="preserve" text-anchor="middle" x="229.5" y="-69.98" font-family="Times,serif" font-size="14.00">Cache Data</text>
</g>
<!-- feature_engineer -->
<g id="node4" class="node">
<title>feature_engineer</title>
<polygon fill="#8b5cf6" stroke="black" points="1027.5,-165.4 847.5,-165.4 847.5,-79 1027.5,-79 1027.5,-165.4"/>
<text xml:space="preserve" text-anchor="middle" x="937.5" y="-132.17" font-family="Arial" font-size="12.00">Feature Engineering</text>
<text xml:space="preserve" text-anchor="middle" x="937.5" y="-117.92" font-family="Arial" font-size="12.00">110+ Features</text>
<text xml:space="preserve" text-anchor="middle" x="937.5" y="-103.67" font-family="Arial" font-size="12.00">Enhanced Dataset</text>
</g>
<!-- data_collector&#45;&gt;feature_engineer -->
<g id="edge3" class="edge">
<title>data_collector&#45;&gt;feature_engineer</title>
<path fill="none" stroke="black" stroke-dasharray="5,2" d="M757.74,-122.2C782.81,-122.2 810.24,-122.2 835.92,-122.2"/>
<polygon fill="black" stroke="black" points="835.68,-125.7 845.68,-122.2 835.68,-118.7 835.68,-125.7"/>
<text xml:space="preserve" text-anchor="middle" x="802.5" y="-125.4" font-family="Times,serif" font-size="14.00">Raw Data</text>
</g>
<!-- model_training -->
<g id="node5" class="node">
<title>model_training</title>
<polygon fill="#8b5cf6" stroke="black" points="1341,-165.4 1161,-165.4 1161,-79 1341,-79 1341,-165.4"/>
<text xml:space="preserve" text-anchor="middle" x="1251" y="-132.17" font-family="Arial" font-size="12.00">XGBoost Training</text>
<text xml:space="preserve" text-anchor="middle" x="1251" y="-117.92" font-family="Arial" font-size="12.00">3,318 Records</text>
<text xml:space="preserve" text-anchor="middle" x="1251" y="-103.67" font-family="Arial" font-size="12.00">Ranker Model</text>
</g>
<!-- feature_engineer&#45;&gt;model_training -->
<g id="edge4" class="edge">
<title>feature_engineer&#45;&gt;model_training</title>
<path fill="none" stroke="black" stroke-dasharray="5,2" d="M1027.76,-122.2C1065.73,-122.2 1110.17,-122.2 1149.3,-122.2"/>
<polygon fill="black" stroke="black" points="1149.21,-125.7 1159.21,-122.2 1149.21,-118.7 1149.21,-125.7"/>
<text xml:space="preserve" text-anchor="middle" x="1094.25" y="-125.4" font-family="Times,serif" font-size="14.00">Enhanced Dataset</text>
</g>
<!-- model_file -->
<g id="node6" class="node">
<title>model_file</title>
<polygon fill="#8b5cf6" stroke="black" points="1623,-165.4 1443,-165.4 1443,-79 1623,-79 1623,-165.4"/>
<text xml:space="preserve" text-anchor="middle" x="1533" y="-125.05" font-family="Arial" font-size="12.00">Model File</text>
<text xml:space="preserve" text-anchor="middle" x="1533" y="-110.8" font-family="Arial" font-size="12.00">(.pkl)</text>
</g>
<!-- model_training&#45;&gt;model_file -->
<g id="edge5" class="edge">
<title>model_training&#45;&gt;model_file</title>
<path fill="none" stroke="black" stroke-dasharray="5,2" d="M1341.36,-122.2C1370.03,-122.2 1401.97,-122.2 1431.39,-122.2"/>
<polygon fill="black" stroke="black" points="1431.01,-125.7 1441.01,-122.2 1431.01,-118.7 1431.01,-125.7"/>
<text xml:space="preserve" text-anchor="middle" x="1392" y="-125.4" font-family="Times,serif" font-size="14.00">Save Model</text>
</g>
<!-- model_serving -->
<g id="node7" class="node">
<title>model_serving</title>
<polygon fill="#10b981" stroke="black" points="1906.5,-165.4 1726.5,-165.4 1726.5,-79 1906.5,-79 1906.5,-165.4"/>
<text xml:space="preserve" text-anchor="middle" x="1816.5" y="-132.17" font-family="Arial" font-size="12.00">Model Serving</text>
<text xml:space="preserve" text-anchor="middle" x="1816.5" y="-117.92" font-family="Arial" font-size="12.00">RankerPredictor</text>
<text xml:space="preserve" text-anchor="middle" x="1816.5" y="-103.67" font-family="Arial" font-size="12.00">Stateless Inference</text>
</g>
<!-- model_file&#45;&gt;model_serving -->
<g id="edge6" class="edge">
<title>model_file&#45;&gt;model_serving</title>
<path fill="none" stroke="black" d="M1623.46,-122.2C1652.58,-122.2 1685.09,-122.2 1714.97,-122.2"/>
<polygon fill="black" stroke="black" points="1714.76,-125.7 1724.76,-122.2 1714.76,-118.7 1714.76,-125.7"/>
<text xml:space="preserve" text-anchor="middle" x="1674.75" y="-125.4" font-family="Times,serif" font-size="14.00">Load Model</text>
</g>
<!-- api_endpoints -->
<g id="node8" class="node">
<title>api_endpoints</title>
<polygon fill="#10b981" stroke="black" points="2286,-165.4 2106,-165.4 2106,-79 2286,-79 2286,-165.4"/>
<text xml:space="preserve" text-anchor="middle" x="2196" y="-132.17" font-family="Arial" font-size="12.00">API Endpoints</text>
<text xml:space="preserve" text-anchor="middle" x="2196" y="-117.92" font-family="Arial" font-size="12.00">/predict</text>
<text xml:space="preserve" text-anchor="middle" x="2196" y="-103.67" font-family="Arial" font-size="12.00">/update_results</text>
</g>
<!-- model_serving&#45;&gt;api_endpoints -->
<g id="edge7" class="edge">
<title>model_serving&#45;&gt;api_endpoints</title>
<path fill="none" stroke="black" d="M1906.96,-122.2C1963.17,-122.2 2035.81,-122.2 2094.07,-122.2"/>
<polygon fill="black" stroke="black" points="2094.01,-125.7 2104.01,-122.2 2094.01,-118.7 2094.01,-125.7"/>
<text xml:space="preserve" text-anchor="middle" x="2006.25" y="-125.4" font-family="Times,serif" font-size="14.00">API Call to model.pkl service</text>
</g>
<!-- database -->
<g id="node9" class="node">
<title>database</title>
<polygon fill="#f59e0b" stroke="black" points="2584.5,-217.4 2404.5,-217.4 2404.5,-131 2584.5,-131 2584.5,-217.4"/>
<text xml:space="preserve" text-anchor="middle" x="2494.5" y="-191.3" font-family="Arial" font-size="12.00">Neon PostgreSQL</text>
<text xml:space="preserve" text-anchor="middle" x="2494.5" y="-177.05" font-family="Arial" font-size="12.00">Predictions</text>
<text xml:space="preserve" text-anchor="middle" x="2494.5" y="-162.8" font-family="Arial" font-size="12.00">Results</text>
<text xml:space="preserve" text-anchor="middle" x="2494.5" y="-148.55" font-family="Arial" font-size="12.00">Races</text>
</g>
<!-- api_endpoints&#45;&gt;database -->
<g id="edge8" class="edge">
<title>api_endpoints&#45;&gt;database</title>
<path fill="none" stroke="black" d="M2286.36,-137.87C2319.98,-143.77 2358.42,-150.51 2392.99,-156.57"/>
<polygon fill="black" stroke="black" points="2392.12,-159.97 2402.57,-158.25 2393.33,-153.08 2392.12,-159.97"/>
<text xml:space="preserve" text-anchor="middle" x="2345.25" y="-157.59" font-family="Times,serif" font-size="14.00">Store Results</text>
</g>
<!-- frontend -->
<g id="node11" class="node">
<title>frontend</title>
<polygon fill="#3b82f6" stroke="black" points="2584.5,-113.4 2404.5,-113.4 2404.5,-27 2584.5,-27 2584.5,-113.4"/>
<text xml:space="preserve" text-anchor="middle" x="2494.5" y="-80.17" font-family="Arial" font-size="12.00">Next.js Frontend</text>
<text xml:space="preserve" text-anchor="middle" x="2494.5" y="-65.92" font-family="Arial" font-size="12.00">Dashboard</text>
<text xml:space="preserve" text-anchor="middle" x="2494.5" y="-51.67" font-family="Arial" font-size="12.00">Visualizations</text>
</g>
<!-- api_endpoints&#45;&gt;frontend -->
<g id="edge9" class="edge">
<title>api_endpoints&#45;&gt;frontend</title>
<path fill="none" stroke="black" d="M2286.36,-106.53C2319.98,-100.63 2358.42,-93.89 2392.99,-87.83"/>
<polygon fill="black" stroke="black" points="2393.33,-91.32 2402.57,-86.15 2392.12,-84.43 2393.33,-91.32"/>
<text xml:space="preserve" text-anchor="middle" x="2345.25" y="-105.59" font-family="Times,serif" font-size="14.00">API Responses</text>
</g>
<!-- cache&#45;&gt;data_collector -->
<g id="edge11" class="edge">
<title>cache&#45;&gt;data_collector</title>
<path fill="none" stroke="black" d="M459.3,-65.53C490.99,-73.59 526.88,-82.88 559.5,-91.7 561.76,-92.31 564.04,-92.93 566.34,-93.56"/>
<polygon fill="black" stroke="black" points="565.19,-96.87 575.76,-96.15 567.05,-90.13 565.19,-96.87"/>
<text xml:space="preserve" text-anchor="middle" x="518.25" y="-94.9" font-family="Times,serif" font-size="14.00">Cached Data</text>
</g>
<!-- legend_training -->
<g id="node12" class="node">
<title>legend_training</title>
<polygon fill="none" stroke="black" stroke-dasharray="5,2" points="133.2,-187.8 46.8,-187.8 46.8,-144.6 133.2,-144.6 133.2,-187.8"/>
<text xml:space="preserve" text-anchor="middle" x="90" y="-163.67" font-family="Arial" font-size="7.00">Training</text>
</g>
<!-- legend_inference -->
<g id="node13" class="node">
<title>legend_inference</title>
<polygon fill="none" stroke="black" points="133.2,-248.8 46.8,-248.8 46.8,-205.6 133.2,-205.6 133.2,-248.8"/>
<text xml:space="preserve" text-anchor="middle" x="90" y="-224.67" font-family="Arial" font-size="7.00">Inference</text>
</g>
<!-- legend_data -->
<g id="node14" class="node">
<title>legend_data</title>
<polygon fill="#ef4444" stroke="black" points="133.2,-309.8 46.8,-309.8 46.8,-266.6 133.2,-266.6 133.2,-309.8"/>
<text xml:space="preserve" text-anchor="middle" x="90" y="-285.68" font-family="Arial" font-size="7.00">Data</text>
</g>
<!-- legend_processing -->
<g id="node15" class="node">
<title>legend_processing</title>
<polygon fill="#06b6d4" stroke="black" points="133.2,-370.8 46.8,-370.8 46.8,-327.6 133.2,-327.6 133.2,-370.8"/>
<text xml:space="preserve" text-anchor="middle" x="90" y="-346.68" font-family="Arial" font-size="7.00">Process</text>
</g>
<!-- legend_ml -->
<g id="node16" class="node">
<title>legend_ml</title>
<polygon fill="#8b5cf6" stroke="black" points="133.2,-431.8 46.8,-431.8 46.8,-388.6 133.2,-388.6 133.2,-431.8"/>
<text xml:space="preserve" text-anchor="middle" x="90" y="-407.68" font-family="Arial" font-size="7.00">ML</text>
</g>
<!-- legend_api -->
<g id="node17" class="node">
<title>legend_api</title>
<polygon fill="#10b981" stroke="black" points="133.2,-492.8 46.8,-492.8 46.8,-449.6 133.2,-449.6 133.2,-492.8"/>
<text xml:space="preserve" text-anchor="middle" x="90" y="-468.68" font-family="Arial" font-size="7.00">API</text>
</g>
<!-- legend_storage -->
<g id="node18" class="node">
<title>legend_storage</title>
<polygon fill="#f59e0b" stroke="black" points="133.2,-553.8 46.8,-553.8 46.8,-510.6 133.2,-510.6 133.2,-553.8"/>
<text xml:space="preserve" text-anchor="middle" x="90" y="-529.68" font-family="Arial" font-size="7.00">Storage</text>
</g>
<!-- legend_frontend -->
<g id="node19" class="node">
<title>legend_frontend</title>
<polygon fill="#3b82f6" stroke="black" points="133.2,-614.8 46.8,-614.8 46.8,-571.6 133.2,-571.6 133.2,-614.8"/>
<text xml:space="preserve" text-anchor="middle" x="90" y="-590.68" font-family="Arial" font-size="7.00">Frontend</text>
</g>
</g>
</svg>
